<svg width="146" height="22" viewBox="0 0 146 22" fill="none" xmlns="http://www.w3.org/2000/svg">
<path d="M18.6925 6.3587C21.0847 6.3587 23.2824 7.5748 24.3393 9.3158V4.1608C24.3393 2.7568 25.4851 1.6185 26.8984 1.6185V21.7515C25.4851 21.7515 24.3393 20.6133 24.3393 19.2092V18.9051C23.4213 20.5906 21.4463 21.9999 18.6645 21.9999C14.5754 21.9999 11.4322 18.8223 11.4322 14.1242C11.4322 9.3986 14.5755 6.3587 18.6925 6.3587ZM19.1653 8.542C16.3838 8.542 14.0191 10.5592 14.0191 14.1242C14.0191 17.689 16.3837 19.7892 19.1653 19.7892C21.9472 19.7892 24.3393 17.7166 24.3393 14.1518C24.3393 10.642 21.9472 8.542 19.1653 8.542ZM66.5861 6.3587C69.424 6.3587 71.371 7.7959 72.261 9.371V9.1497C72.261 7.7456 73.407 6.6073 74.82 6.6073V21.7515C73.407 21.7515 72.261 20.6133 72.261 19.2092V18.9327C71.343 20.5633 69.368 21.9999 66.5583 21.9999C62.497 21.9999 59.3538 18.8223 59.3538 14.1242C59.3538 9.3986 62.497 6.3587 66.5861 6.3587ZM67.087 8.542C64.3053 8.542 61.9406 10.5592 61.9406 14.1242C61.9406 17.689 64.3053 19.7892 67.087 19.7892C69.869 19.7892 72.261 17.7166 72.261 14.1518C72.261 10.642 69.869 8.542 67.087 8.542ZM84.193 6.3588C79.854 6.3588 76.766 9.3987 76.766 14.152C76.766 18.9601 79.854 22 84.193 22C87.976 22 90.452 19.8997 91.231 16.8877H88.505C87.949 18.7946 86.447 19.8721 84.193 19.8721C81.412 19.8721 79.353 17.9101 79.353 14.152C79.353 10.4487 81.412 8.4867 84.193 8.4867C86.447 8.4867 87.976 9.6476 88.505 11.4714H91.231C90.452 8.2935 87.976 6.3588 84.193 6.3588ZM95.737 1.3015C94.339 1.3015 93.205 2.4276 93.205 3.8166V21.7515H95.737V13.3783C95.737 10.1171 97.517 8.5144 100.104 8.5144C102.663 8.5144 104.36 10.0895 104.36 13.1849V21.7515H106.863V12.8253C106.863 8.4865 104.165 6.3313 100.772 6.3313C98.63 6.3313 96.738 7.1879 95.737 8.7906V1.3015ZM112.148 6.6074C110.75 6.6074 109.617 7.7335 109.617 9.1224V21.7513H112.148V6.6074ZM126.223 21.7514H128.727V12.8255C128.727 8.4867 126.028 6.3312 122.495 6.3312C120.437 6.3312 118.601 7.188 117.6 8.7629V6.6074C116.202 6.6074 115.068 7.7335 115.068 9.1225V21.7514H117.6V13.3782C117.6 10.117 119.38 8.5143 121.967 8.5143C124.526 8.5143 126.223 10.0897 126.223 13.1847V21.7514ZM137.766 6.3587C140.604 6.3587 142.551 7.7959 143.441 9.371V9.1497C143.441 7.7456 144.587 6.6073 146 6.6073V21.7515C144.587 21.7515 143.441 20.6133 143.441 19.2092V18.9327C142.523 20.5633 140.548 21.9999 137.738 21.9999C133.677 21.9999 130.534 18.8223 130.534 14.1242C130.534 9.3986 133.677 6.3587 137.766 6.3587ZM138.267 8.542C135.485 8.542 133.121 10.5592 133.121 14.1242C133.121 17.689 135.485 19.7892 138.267 19.7892C141.049 19.7892 143.441 17.7166 143.441 14.1518C143.441 10.642 141.049 8.542 138.267 8.542ZM38.45 1.6185C37.0519 1.6185 35.9184 2.7446 35.9184 4.1336V21.8797H38.45V1.6185ZM47.0123 21.8797H49.5437L44.8889 4.0531C44.5152 2.6197 43.213 1.6185 41.7226 1.6185L47.0123 21.8797ZM55.7095 21.8797H58.2408L53.5861 4.0531C53.2124 2.6197 51.9102 1.6185 50.4198 1.6185L55.7095 21.8797ZM10.4313 2.5596H0V21.8486H10.4313V19.7759H2.5313V13.1434H9.5969V11.0707H2.5313V4.6322H10.4313V2.5596ZM109.198 1.6736C109.198 2.5978 109.952 3.3472 110.882 3.3472C111.813 3.3472 112.567 2.5978 112.567 1.6736C112.567 0.749099 111.813 0 110.882 0C109.952 0 109.198 0.749099 109.198 1.6736Z" fill="white"/>
</svg>
